<svg xmlns="http://www.w3.org/2000/svg" xmlns:xlink="http://www.w3.org/1999/xlink" xmlns:s="https://github.com/nturley/netlistsvg" width="540" height="622">
  <style>svg {
    stroke:#000;
    fill:none;
  }
  text {
    fill:#000;
    stroke:none;
    font-size:10px;
    font-weight: bold;
    font-family: "Courier New", monospace;
  }
  .nodelabel {
    text-anchor: middle;
  }
  .inputPortLabel {
    text-anchor: end;
  }
  .splitjoinBody {
    fill:#000;
  }</style>
  <g s:type="generic" transform="translate(127,42)" s:width="30" s:height="40" id="cell_U1">
    <text x="15" y="-4" class="nodelabel cell_U1" s:attribute="ref">U1 MCP23017</text>
    <rect width="30" height="160" s:generic="body" class="cell_U1"/>
    <g transform="translate(0,10)" s:x="0" s:y="10" s:pid="in0" id="port_U1~GPB4">
      <text x="-3" y="-4" class="inputPortLabel cell_U1">GPB4</text>
    </g>
    <g transform="translate(0,30)" s:x="0" s:y="10" s:pid="in0" id="port_U1~GPB5">
      <text x="-3" y="-4" class="inputPortLabel cell_U1">GPB5</text>
    </g>
    <g transform="translate(0,50)" s:x="0" s:y="10" s:pid="in0" id="port_U1~GPB6">
      <text x="-3" y="-4" class="inputPortLabel cell_U1">GPB6</text>
    </g>
    <g transform="translate(0,70)" s:x="0" s:y="10" s:pid="in0" id="port_U1~GPB7">
      <text x="-3" y="-4" class="inputPortLabel cell_U1">GPB7</text>
    </g>
    <g transform="translate(0,90)" s:x="0" s:y="10" s:pid="in0" id="port_U1~VDD">
      <text x="-3" y="-4" class="inputPortLabel cell_U1">VDD</text>
    </g>
    <g transform="translate(0,110)" s:x="0" s:y="10" s:pid="in0" id="port_U1~VSS">
      <text x="-3" y="-4" class="inputPortLabel cell_U1">VSS</text>
    </g>
    <g transform="translate(30,10)" s:x="30" s:y="10" s:pid="out0" id="port_U1~GPA0">
      <text x="5" y="-4" style="fill:#000; stroke:none" class="cell_U1">GPA0</text>
    </g>
    <g transform="translate(30,30)" s:x="30" s:y="10" s:pid="out0" id="port_U1~GPA1">
      <text x="5" y="-4" style="fill:#000; stroke:none" class="cell_U1">GPA1</text>
    </g>
    <g transform="translate(30,50)" s:x="30" s:y="10" s:pid="out0" id="port_U1~GPA2">
      <text x="5" y="-4" style="fill:#000; stroke:none" class="cell_U1">GPA2</text>
    </g>
    <g transform="translate(30,70)" s:x="30" s:y="10" s:pid="out0" id="port_U1~GPA3">
      <text x="5" y="-4" style="fill:#000; stroke:none" class="cell_U1">GPA3</text>
    </g>
    <g transform="translate(30,90)" s:x="30" s:y="10" s:pid="out0" id="port_U1~GPA4">
      <text x="5" y="-4" style="fill:#000; stroke:none" class="cell_U1">GPA4</text>
    </g>
    <g transform="translate(30,110)" s:x="30" s:y="10" s:pid="out0" id="port_U1~GPA5">
      <text x="5" y="-4" style="fill:#000; stroke:none" class="cell_U1">GPA5</text>
    </g>
    <g transform="translate(30,130)" s:x="30" s:y="10" s:pid="out0" id="port_U1~GPA6">
      <text x="5" y="-4" style="fill:#000; stroke:none" class="cell_U1">GPA6</text>
    </g>
    <g transform="translate(30,150)" s:x="30" s:y="10" s:pid="out0" id="port_U1~GPA7">
      <text x="5" y="-4" style="fill:#000; stroke:none" class="cell_U1">GPA7</text>
    </g>
  </g>
  <g s:type="generic" transform="translate(498,306)" s:width="30" s:height="40" id="cell_M2">
    <text x="15" y="-4" class="nodelabel cell_M2" s:attribute="ref">M2 ADS1115_0x49</text>
    <rect width="30" height="100" s:generic="body" class="cell_M2"/>
    <g transform="translate(0,10)" s:x="0" s:y="10" s:pid="in0" id="port_M2~A0">
      <text x="-3" y="-4" class="inputPortLabel cell_M2">A0</text>
    </g>
    <g transform="translate(0,30)" s:x="0" s:y="10" s:pid="in0" id="port_M2~A1">
      <text x="-3" y="-4" class="inputPortLabel cell_M2">A1</text>
    </g>
    <g transform="translate(0,50)" s:x="0" s:y="10" s:pid="in0" id="port_M2~A2">
      <text x="-3" y="-4" class="inputPortLabel cell_M2">A2</text>
    </g>
    <g transform="translate(0,70)" s:x="0" s:y="10" s:pid="in0" id="port_M2~VDD">
      <text x="-3" y="-4" class="inputPortLabel cell_M2">VDD</text>
    </g>
    <g transform="translate(0,90)" s:x="0" s:y="10" s:pid="in0" id="port_M2~GND">
      <text x="-3" y="-4" class="inputPortLabel cell_M2">GND</text>
    </g>
  </g>
  <g s:type="generic" transform="translate(252,42)" s:width="30" s:height="40" id="cell_M7">
    <text x="15" y="-4" class="nodelabel cell_M7" s:attribute="ref">M7 ULN2003_28BYJ48</text>
    <rect width="30" height="120" s:generic="body" class="cell_M7"/>
    <g transform="translate(0,10)" s:x="0" s:y="10" s:pid="in0" id="port_M7~IN1">
      <text x="-3" y="-4" class="inputPortLabel cell_M7">IN1</text>
    </g>
    <g transform="translate(0,30)" s:x="0" s:y="10" s:pid="in0" id="port_M7~IN2">
      <text x="-3" y="-4" class="inputPortLabel cell_M7">IN2</text>
    </g>
    <g transform="translate(0,50)" s:x="0" s:y="10" s:pid="in0" id="port_M7~IN3">
      <text x="-3" y="-4" class="inputPortLabel cell_M7">IN3</text>
    </g>
    <g transform="translate(0,70)" s:x="0" s:y="10" s:pid="in0" id="port_M7~IN4">
      <text x="-3" y="-4" class="inputPortLabel cell_M7">IN4</text>
    </g>
    <g transform="translate(0,90)" s:x="0" s:y="10" s:pid="in0" id="port_M7~V+">
      <text x="-3" y="-4" class="inputPortLabel cell_M7">V+</text>
    </g>
    <g transform="translate(0,110)" s:x="0" s:y="10" s:pid="in0" id="port_M7~GND">
      <text x="-3" y="-4" class="inputPortLabel cell_M7">GND</text>
    </g>
  </g>
  <g s:type="generic" transform="translate(391,96)" s:width="30" s:height="40" id="cell_R1">
    <text x="15" y="-4" class="nodelabel cell_R1" s:attribute="ref">R1 LDR</text>
    <rect width="30" height="20" s:generic="body" class="cell_R1"/>
    <g transform="translate(0,10)" s:x="0" s:y="10" s:pid="in0" id="port_R1~1">
      <text x="-3" y="-4" class="inputPortLabel cell_R1">1</text>
    </g>
    <g transform="translate(30,10)" s:x="30" s:y="10" s:pid="out0" id="port_R1~2">
      <text x="5" y="-4" style="fill:#000; stroke:none" class="cell_R1">2</text>
    </g>
  </g>
  <g s:type="generic" transform="translate(391,503)" s:width="30" s:height="40" id="cell_R2">
    <text x="15" y="-4" class="nodelabel cell_R2" s:attribute="ref">R2 LDR</text>
    <rect width="30" height="20" s:generic="body" class="cell_R2"/>
    <g transform="translate(0,10)" s:x="0" s:y="10" s:pid="in0" id="port_R2~1">
      <text x="-3" y="-4" class="inputPortLabel cell_R2">1</text>
    </g>
    <g transform="translate(30,10)" s:x="30" s:y="10" s:pid="out0" id="port_R2~2">
      <text x="5" y="-4" style="fill:#000; stroke:none" class="cell_R2">2</text>
    </g>
  </g>
  <g s:type="generic" transform="translate(391,169)" s:width="30" s:height="40" id="cell_R3">
    <text x="15" y="-4" class="nodelabel cell_R3" s:attribute="ref">R3 LDR</text>
    <rect width="30" height="20" s:generic="body" class="cell_R3"/>
    <g transform="translate(0,10)" s:x="0" s:y="10" s:pid="in0" id="port_R3~1">
      <text x="-3" y="-4" class="inputPortLabel cell_R3">1</text>
    </g>
    <g transform="translate(30,10)" s:x="30" s:y="10" s:pid="out0" id="port_R3~2">
      <text x="5" y="-4" style="fill:#000; stroke:none" class="cell_R3">2</text>
    </g>
  </g>
  <g s:type="generic" transform="translate(498,96)" s:width="30" s:height="40" id="cell_R4">
    <text x="15" y="-4" class="nodelabel cell_R4" s:attribute="ref">R4 10k</text>
    <rect width="30" height="40" s:generic="body" class="cell_R4"/>
    <g transform="translate(0,10)" s:x="0" s:y="10" s:pid="in0" id="port_R4~1">
      <text x="-3" y="-4" class="inputPortLabel cell_R4">1</text>
    </g>
    <g transform="translate(0,30)" s:x="0" s:y="10" s:pid="in0" id="port_R4~2">
      <text x="-3" y="-4" class="inputPortLabel cell_R4">2</text>
    </g>
  </g>
  <g s:type="generic" transform="translate(498,503)" s:width="30" s:height="40" id="cell_R5">
    <text x="15" y="-4" class="nodelabel cell_R5" s:attribute="ref">R5 10k</text>
    <rect width="30" height="40" s:generic="body" class="cell_R5"/>
    <g transform="translate(0,10)" s:x="0" s:y="10" s:pid="in0" id="port_R5~1">
      <text x="-3" y="-4" class="inputPortLabel cell_R5">1</text>
    </g>
    <g transform="translate(0,30)" s:x="0" s:y="10" s:pid="in0" id="port_R5~2">
      <text x="-3" y="-4" class="inputPortLabel cell_R5">2</text>
    </g>
  </g>
  <g s:type="generic" transform="translate(498,169)" s:width="30" s:height="40" id="cell_R6">
    <text x="15" y="-4" class="nodelabel cell_R6" s:attribute="ref">R6 10k</text>
    <rect width="30" height="40" s:generic="body" class="cell_R6"/>
    <g transform="translate(0,10)" s:x="0" s:y="10" s:pid="in0" id="port_R6~1">
      <text x="-3" y="-4" class="inputPortLabel cell_R6">1</text>
    </g>
    <g transform="translate(0,30)" s:x="0" s:y="10" s:pid="in0" id="port_R6~2">
      <text x="-3" y="-4" class="inputPortLabel cell_R6">2</text>
    </g>
  </g>
  <g s:type="PWR_3V3" s:width="40" s:height="38" transform="translate(12,84.5)" id="cell_PF_U1_9">
    <s:alias val="PWR_3V3"/>
    <text x="10" y="-8" class="nodelabel">+3V3</text>
    <path d="M0,0 H20 L10,16 Z M10,16 V30" class="cell_PF_U1_9"/>
    <g s:x="10" s:y="30" s:pid="P" s:position="bottom"/>
  </g>
  <g s:type="PWR_GND" s:width="22" s:height="30" transform="translate(131.5,317)" id="cell_PF_U1_10">
    <s:alias val="PWR_GND"/>
    <path d="M0,0 H20 M4,5 H16 M8,10 H12 M10,0 V-14" class="cell_PF_U1_10"/>
    <g s:x="10" s:y="-14" s:pid="P" s:position="top"/>
  </g>
  <g s:type="PWR_3V3" s:width="40" s:height="38" transform="translate(386.5,242)" id="cell_PF_M2_VDD">
    <s:alias val="PWR_3V3"/>
    <text x="10" y="-8" class="nodelabel">+3V3</text>
    <path d="M0,0 H20 L10,16 Z M10,16 V30" class="cell_PF_M2_VDD"/>
    <g s:x="10" s:y="30" s:pid="P" s:position="bottom"/>
  </g>
  <g s:type="PWR_GND" s:width="22" s:height="30" transform="translate(492.5,443)" id="cell_PF_M2_GND">
    <s:alias val="PWR_GND"/>
    <path d="M0,0 H20 M4,5 H16 M8,10 H12 M10,0 V-14" class="cell_PF_M2_GND"/>
    <g s:x="10" s:y="-14" s:pid="P" s:position="top"/>
  </g>
  <g s:type="PWR_5V" s:width="40" s:height="38" transform="translate(122.5,235)" id="cell_PF_M7_V+">
    <s:alias val="PWR_5V"/>
    <text x="10" y="-8" class="nodelabel">+5V</text>
    <path d="M0,0 H20 L10,16 Z M10,16 V30" class="cell_PF_M7_V+"/>
    <g s:x="10" s:y="30" s:pid="P" s:position="bottom"/>
  </g>
  <g s:type="PWR_GND" s:width="22" s:height="30" transform="translate(246.5,391)" id="cell_PF_M7_GND">
    <s:alias val="PWR_GND"/>
    <path d="M0,0 H20 M4,5 H16 M8,10 H12 M10,0 V-14" class="cell_PF_M7_GND"/>
    <g s:x="10" s:y="-14" s:pid="P" s:position="top"/>
  </g>
  <g s:type="PWR_3V3" s:width="40" s:height="38" transform="translate(294,58.5)" id="cell_PF_R1_1">
    <s:alias val="PWR_3V3"/>
    <text x="10" y="-8" class="nodelabel">+3V3</text>
    <path d="M0,0 H20 L10,16 Z M10,16 V30" class="cell_PF_R1_1"/>
    <g s:x="10" s:y="30" s:pid="P" s:position="bottom"/>
  </g>
  <g s:type="PWR_3V3" s:width="40" s:height="38" transform="translate(294,189.5)" id="cell_PF_R2_1">
    <s:alias val="PWR_3V3"/>
    <text x="10" y="-8" class="nodelabel">+3V3</text>
    <path d="M0,0 H20 L10,16 Z M10,16 V30" class="cell_PF_R2_1"/>
    <g s:x="10" s:y="30" s:pid="P" s:position="bottom"/>
  </g>
  <g s:type="PWR_3V3" s:width="40" s:height="38" transform="translate(294,116.5)" id="cell_PF_R3_1">
    <s:alias val="PWR_3V3"/>
    <text x="10" y="-8" class="nodelabel">+3V3</text>
    <path d="M0,0 H20 L10,16 Z M10,16 V30" class="cell_PF_R3_1"/>
    <g s:x="10" s:y="30" s:pid="P" s:position="bottom"/>
  </g>
  <g s:type="PWR_GND" s:width="22" s:height="30" transform="translate(492.5,36)" id="cell_PF_R4_2">
    <s:alias val="PWR_GND"/>
    <path d="M0,0 H20 M4,5 H16 M8,10 H12 M10,0 V-14" class="cell_PF_R4_2"/>
    <g s:x="10" s:y="-14" s:pid="P" s:position="top"/>
  </g>
  <g s:type="PWR_GND" s:width="22" s:height="30" transform="translate(492.5,580)" id="cell_PF_R5_2">
    <s:alias val="PWR_GND"/>
    <path d="M0,0 H20 M4,5 H16 M8,10 H12 M10,0 V-14" class="cell_PF_R5_2"/>
    <g s:x="10" s:y="-14" s:pid="P" s:position="top"/>
  </g>
  <g s:type="PWR_GND" s:width="22" s:height="30" transform="translate(492.5,246)" id="cell_PF_R6_2">
    <s:alias val="PWR_GND"/>
    <path d="M0,0 H20 M4,5 H16 M8,10 H12 M10,0 V-14" class="cell_PF_R6_2"/>
    <g s:x="10" s:y="-14" s:pid="P" s:position="top"/>
  </g>
  <line x1="158" x2="193" y1="132.5" y2="132.5" class="net_9"/>
  <line x1="193" x2="193" y1="132.5" y2="22" class="net_9"/>
  <line x1="193" x2="82" y1="22" y2="22" class="net_9"/>
  <line x1="82" x2="82" y1="22" y2="52.5" class="net_9"/>
  <line x1="82" x2="127" y1="52.5" y2="52.5" class="net_9"/>
  <line x1="158" x2="203" y1="152.5" y2="152.5" class="net_10"/>
  <line x1="203" x2="203" y1="152.5" y2="12" class="net_10"/>
  <line x1="203" x2="62" y1="12" y2="12" class="net_10"/>
  <line x1="62" x2="62" y1="12" y2="72.5" class="net_10"/>
  <line x1="62" x2="127" y1="72.5" y2="72.5" class="net_10"/>
  <line x1="158" x2="203" y1="172.5" y2="172.5" class="net_11"/>
  <line x1="203" x2="203" y1="172.5" y2="225" class="net_11"/>
  <line x1="203" x2="62" y1="225" y2="225" class="net_11"/>
  <line x1="62" x2="62" y1="225" y2="92.5" class="net_11"/>
  <line x1="62" x2="127" y1="92.5" y2="92.5" class="net_11"/>
  <line x1="158" x2="193" y1="192.5" y2="192.5" class="net_12"/>
  <line x1="193" x2="193" y1="192.5" y2="215" class="net_12"/>
  <line x1="193" x2="72" y1="215" y2="215" class="net_12"/>
  <line x1="72" x2="72" y1="215" y2="112.5" class="net_12"/>
  <line x1="72" x2="127" y1="112.5" y2="112.5" class="net_12"/>
  <line x1="22" x2="22" y1="114.5" y2="132.5" class="net_13"/>
  <line x1="22" x2="127" y1="132.5" y2="132.5" class="net_13"/>
  <line x1="82" x2="82" y1="293" y2="152.5" class="net_14"/>
  <line x1="82" x2="127" y1="152.5" y2="152.5" class="net_14"/>
  <line x1="82" x2="141.5" y1="293" y2="303" class="net_14"/>
  <line x1="422" x2="449" y1="106.5" y2="106.5" class="net_2"/>
  <line x1="449" x2="449" y1="106.5" y2="316.5" class="net_2"/>
  <circle cx="449" cy="106.5" r="2" style="fill:#000" class="net_2"/>
  <line x1="449" x2="498" y1="316.5" y2="316.5" class="net_2"/>
  <line x1="422" x2="498" y1="106.5" y2="106.5" class="net_2"/>
  <line x1="422" x2="449" y1="513.5" y2="513.5" class="net_3"/>
  <line x1="449" x2="449" y1="513.5" y2="336.5" class="net_3"/>
  <circle cx="449" cy="513.5" r="2" style="fill:#000" class="net_3"/>
  <line x1="449" x2="498" y1="336.5" y2="336.5" class="net_3"/>
  <line x1="422" x2="498" y1="513.5" y2="513.5" class="net_3"/>
  <line x1="422" x2="439" y1="179.5" y2="179.5" class="net_4"/>
  <line x1="439" x2="439" y1="179.5" y2="356.5" class="net_4"/>
  <circle cx="439" cy="179.5" r="2" style="fill:#000" class="net_4"/>
  <line x1="439" x2="498" y1="356.5" y2="356.5" class="net_4"/>
  <line x1="422" x2="498" y1="179.5" y2="179.5" class="net_4"/>
  <line x1="396.5" x2="396.5" y1="272" y2="376.5" class="net_15"/>
  <line x1="396.5" x2="498" y1="376.5" y2="376.5" class="net_15"/>
  <line x1="459" x2="459" y1="419" y2="396.5" class="net_16"/>
  <line x1="459" x2="498" y1="396.5" y2="396.5" class="net_16"/>
  <line x1="459" x2="502.5" y1="419" y2="429" class="net_16"/>
  <line x1="158" x2="252" y1="52.5" y2="52.5" class="net_5"/>
  <line x1="158" x2="252" y1="72.5" y2="72.5" class="net_6"/>
  <line x1="158" x2="252" y1="92.5" y2="92.5" class="net_7"/>
  <line x1="158" x2="252" y1="112.5" y2="112.5" class="net_8"/>
  <line x1="132.5" x2="132.5" y1="265" y2="283" class="net_17"/>
  <line x1="132.5" x2="213" y1="283" y2="283" class="net_17"/>
  <line x1="213" x2="213" y1="283" y2="132.5" class="net_17"/>
  <line x1="213" x2="252" y1="132.5" y2="132.5" class="net_17"/>
  <line x1="223" x2="223" y1="367" y2="152.5" class="net_18"/>
  <line x1="223" x2="252" y1="152.5" y2="152.5" class="net_18"/>
  <line x1="223" x2="256.5" y1="367" y2="377" class="net_18"/>
  <line x1="304" x2="304" y1="88.5" y2="106.5" class="net_19"/>
  <line x1="304" x2="391" y1="106.5" y2="106.5" class="net_19"/>
  <line x1="304" x2="304" y1="219.5" y2="513.5" class="net_20"/>
  <line x1="304" x2="391" y1="513.5" y2="513.5" class="net_20"/>
  <line x1="304" x2="304" y1="146.5" y2="179.5" class="net_21"/>
  <line x1="304" x2="391" y1="179.5" y2="179.5" class="net_21"/>
  <line x1="459" x2="459" y1="12" y2="126.5" class="net_22"/>
  <line x1="459" x2="498" y1="126.5" y2="126.5" class="net_22"/>
  <line x1="459" x2="502.5" y1="12" y2="22" class="net_22"/>
  <line x1="439" x2="439" y1="556" y2="533.5" class="net_23"/>
  <line x1="439" x2="498" y1="533.5" y2="533.5" class="net_23"/>
  <line x1="439" x2="502.5" y1="556" y2="566" class="net_23"/>
  <line x1="459" x2="459" y1="222" y2="199.5" class="net_24"/>
  <line x1="459" x2="498" y1="199.5" y2="199.5" class="net_24"/>
  <line x1="459" x2="502.5" y1="222" y2="232" class="net_24"/>
</svg>
