<svg xmlns="http://www.w3.org/2000/svg" xmlns:xlink="http://www.w3.org/1999/xlink" xmlns:s="https://github.com/nturley/netlistsvg" width="537" height="921.5">
  <style>svg {
    stroke:#000;
    fill:none;
  }
  text {
    fill:#000;
    stroke:none;
    font-size:10px;
    font-weight: bold;
    font-family: "Courier New", monospace;
  }
  .nodelabel {
    text-anchor: middle;
  }
  .inputPortLabel {
    text-anchor: end;
  }
  .splitjoinBody {
    fill:#000;
  }</style>
  <g s:type="generic" transform="translate(111,291)" s:width="30" s:height="40" id="cell_J1">
    <text x="15" y="-4" class="nodelabel cell_J1" s:attribute="ref">J1 Raspberry_Pi_40pin</text>
    <rect width="30" height="160" s:generic="body" class="cell_J1"/>
    <g transform="translate(0,10)" s:x="0" s:y="10" s:pid="in0" id="port_J1~21:GPIO9/MISO">
      <text x="-3" y="-4" class="inputPortLabel cell_J1">21:GPIO9/MISO</text>
    </g>
    <g transform="translate(30,10)" s:x="30" s:y="10" s:pid="out0" id="port_J1~19:GPIO10/MOSI">
      <text x="5" y="-4" style="fill:#000; stroke:none" class="cell_J1">19:GPIO10/MOSI</text>
    </g>
    <g transform="translate(30,30)" s:x="30" s:y="10" s:pid="out0" id="port_J1~23:GPIO11/SCLK">
      <text x="5" y="-4" style="fill:#000; stroke:none" class="cell_J1">23:GPIO11/SCLK</text>
    </g>
    <g transform="translate(30,50)" s:x="30" s:y="10" s:pid="out0" id="port_J1~32:GPIO12">
      <text x="5" y="-4" style="fill:#000; stroke:none" class="cell_J1">32:GPIO12</text>
    </g>
    <g transform="translate(30,70)" s:x="30" s:y="10" s:pid="out0" id="port_J1~33:GPIO13">
      <text x="5" y="-4" style="fill:#000; stroke:none" class="cell_J1">33:GPIO13</text>
    </g>
    <g transform="translate(30,90)" s:x="30" s:y="10" s:pid="out0" id="port_J1~36:GPIO16">
      <text x="5" y="-4" style="fill:#000; stroke:none" class="cell_J1">36:GPIO16</text>
    </g>
    <g transform="translate(30,110)" s:x="30" s:y="10" s:pid="out0" id="port_J1~37:GPIO26">
      <text x="5" y="-4" style="fill:#000; stroke:none" class="cell_J1">37:GPIO26</text>
    </g>
    <g transform="translate(30,130)" s:x="30" s:y="10" s:pid="out0" id="port_J1~38:GPIO20">
      <text x="5" y="-4" style="fill:#000; stroke:none" class="cell_J1">38:GPIO20</text>
    </g>
    <g transform="translate(30,150)" s:x="30" s:y="10" s:pid="out0" id="port_J1~40:GPIO21">
      <text x="5" y="-4" style="fill:#000; stroke:none" class="cell_J1">40:GPIO21</text>
    </g>
  </g>
  <g s:type="generic" transform="translate(323.1666666666667,555.5)" s:width="30" s:height="40" id="cell_U2">
    <text x="15" y="-4" class="nodelabel cell_U2" s:attribute="ref">U2 74HC595</text>
    <rect width="30" height="100" s:generic="body" class="cell_U2"/>
    <g transform="translate(0,10)" s:x="0" s:y="10" s:pid="in0" id="port_U2~DS">
      <text x="-3" y="-4" class="inputPortLabel cell_U2">DS</text>
    </g>
    <g transform="translate(0,30)" s:x="0" s:y="10" s:pid="in0" id="port_U2~SHCP">
      <text x="-3" y="-4" class="inputPortLabel cell_U2">SHCP</text>
    </g>
    <g transform="translate(0,50)" s:x="0" s:y="10" s:pid="in0" id="port_U2~STCP">
      <text x="-3" y="-4" class="inputPortLabel cell_U2">STCP</text>
    </g>
    <g transform="translate(0,70)" s:x="0" s:y="10" s:pid="in0" id="port_U2~VCC">
      <text x="-3" y="-4" class="inputPortLabel cell_U2">VCC</text>
    </g>
    <g transform="translate(0,90)" s:x="0" s:y="10" s:pid="in0" id="port_U2~GND">
      <text x="-3" y="-4" class="inputPortLabel cell_U2">GND</text>
    </g>
    <g transform="translate(30,10)" s:x="30" s:y="10" s:pid="out0" id="port_U2~Q1">
      <text x="5" y="-4" style="fill:#000; stroke:none" class="cell_U2">Q1</text>
    </g>
  </g>
  <g s:type="generic" transform="translate(459,351)" s:width="30" s:height="40" id="cell_U3">
    <text x="15" y="-4" class="nodelabel cell_U3" s:attribute="ref">U3 MCP3008</text>
    <rect width="30" height="160" s:generic="body" class="cell_U3"/>
    <g transform="translate(0,10)" s:x="0" s:y="10" s:pid="in0" id="port_U3~CLK">
      <text x="-3" y="-4" class="inputPortLabel cell_U3">CLK</text>
    </g>
    <g transform="translate(0,30)" s:x="0" s:y="10" s:pid="in0" id="port_U3~DIN">
      <text x="-3" y="-4" class="inputPortLabel cell_U3">DIN</text>
    </g>
    <g transform="translate(0,50)" s:x="0" s:y="10" s:pid="in0" id="port_U3~CS">
      <text x="-3" y="-4" class="inputPortLabel cell_U3">CS</text>
    </g>
    <g transform="translate(0,70)" s:x="0" s:y="10" s:pid="in0" id="port_U3~CH1">
      <text x="-3" y="-4" class="inputPortLabel cell_U3">CH1</text>
    </g>
    <g transform="translate(0,90)" s:x="0" s:y="10" s:pid="in0" id="port_U3~CH2">
      <text x="-3" y="-4" class="inputPortLabel cell_U3">CH2</text>
    </g>
    <g transform="translate(0,110)" s:x="0" s:y="10" s:pid="in0" id="port_U3~CH3">
      <text x="-3" y="-4" class="inputPortLabel cell_U3">CH3</text>
    </g>
    <g transform="translate(0,130)" s:x="0" s:y="10" s:pid="in0" id="port_U3~VDD">
      <text x="-3" y="-4" class="inputPortLabel cell_U3">VDD</text>
    </g>
    <g transform="translate(0,150)" s:x="0" s:y="10" s:pid="in0" id="port_U3~DGND">
      <text x="-3" y="-4" class="inputPortLabel cell_U3">DGND</text>
    </g>
    <g transform="translate(30,10)" s:x="30" s:y="10" s:pid="out0" id="port_U3~DOUT">
      <text x="5" y="-4" style="fill:#000; stroke:none" class="cell_U3">DOUT</text>
    </g>
  </g>
  <g s:type="generic" transform="translate(322,422.5)" s:width="30" s:height="40" id="cell_U4">
    <text x="15" y="-4" class="nodelabel cell_U4" s:attribute="ref">U4 MCP4922</text>
    <rect width="30" height="100" s:generic="body" class="cell_U4"/>
    <g transform="translate(0,10)" s:x="0" s:y="10" s:pid="in0" id="port_U4~CS">
      <text x="-3" y="-4" class="inputPortLabel cell_U4">CS</text>
    </g>
    <g transform="translate(0,30)" s:x="0" s:y="10" s:pid="in0" id="port_U4~SCK">
      <text x="-3" y="-4" class="inputPortLabel cell_U4">SCK</text>
    </g>
    <g transform="translate(0,50)" s:x="0" s:y="10" s:pid="in0" id="port_U4~SDI">
      <text x="-3" y="-4" class="inputPortLabel cell_U4">SDI</text>
    </g>
    <g transform="translate(0,70)" s:x="0" s:y="10" s:pid="in0" id="port_U4~VDD">
      <text x="-3" y="-4" class="inputPortLabel cell_U4">VDD</text>
    </g>
    <g transform="translate(0,90)" s:x="0" s:y="10" s:pid="in0" id="port_U4~AVSS">
      <text x="-3" y="-4" class="inputPortLabel cell_U4">AVSS</text>
    </g>
    <g transform="translate(30,10)" s:x="30" s:y="10" s:pid="out0" id="port_U4~VOUTA">
      <text x="5" y="-4" style="fill:#000; stroke:none" class="cell_U4">VOUTA</text>
    </g>
    <g transform="translate(30,30)" s:x="30" s:y="10" s:pid="out0" id="port_U4~VOUTB">
      <text x="5" y="-4" style="fill:#000; stroke:none" class="cell_U4">VOUTB</text>
    </g>
  </g>
  <g s:type="generic" transform="translate(323.1666666666667,22)" s:width="30" s:height="40" id="cell_U5">
    <text x="15" y="-4" class="nodelabel cell_U5" s:attribute="ref">U5 MCP42010</text>
    <rect width="30" height="100" s:generic="body" class="cell_U5"/>
    <g transform="translate(0,10)" s:x="0" s:y="10" s:pid="in0" id="port_U5~CS">
      <text x="-3" y="-4" class="inputPortLabel cell_U5">CS</text>
    </g>
    <g transform="translate(0,30)" s:x="0" s:y="10" s:pid="in0" id="port_U5~SCK">
      <text x="-3" y="-4" class="inputPortLabel cell_U5">SCK</text>
    </g>
    <g transform="translate(0,50)" s:x="0" s:y="10" s:pid="in0" id="port_U5~SI">
      <text x="-3" y="-4" class="inputPortLabel cell_U5">SI</text>
    </g>
    <g transform="translate(0,70)" s:x="0" s:y="10" s:pid="in0" id="port_U5~VDD">
      <text x="-3" y="-4" class="inputPortLabel cell_U5">VDD</text>
    </g>
    <g transform="translate(0,90)" s:x="0" s:y="10" s:pid="in0" id="port_U5~VSS">
      <text x="-3" y="-4" class="inputPortLabel cell_U5">VSS</text>
    </g>
    <g transform="translate(30,10)" s:x="30" s:y="10" s:pid="out0" id="port_U5~PW0">
      <text x="5" y="-4" style="fill:#000; stroke:none" class="cell_U5">PW0</text>
    </g>
  </g>
  <g s:type="generic" transform="translate(459,22)" s:width="30" s:height="40" id="cell_M1">
    <text x="15" y="-4" class="nodelabel cell_M1" s:attribute="ref">M1 ADS1115_0x48</text>
    <rect width="30" height="60" s:generic="body" class="cell_M1"/>
    <g transform="translate(0,10)" s:x="0" s:y="10" s:pid="in0" id="port_M1~A1">
      <text x="-3" y="-4" class="inputPortLabel cell_M1">A1</text>
    </g>
    <g transform="translate(0,30)" s:x="0" s:y="10" s:pid="in0" id="port_M1~VDD">
      <text x="-3" y="-4" class="inputPortLabel cell_M1">VDD</text>
    </g>
    <g transform="translate(0,50)" s:x="0" s:y="10" s:pid="in0" id="port_M1~GND">
      <text x="-3" y="-4" class="inputPortLabel cell_M1">GND</text>
    </g>
  </g>
  <g s:type="PWR_3V3" s:width="40" s:height="38" transform="translate(109.5,474)" id="cell_PF_U2_16">
    <s:alias val="PWR_3V3"/>
    <text x="10" y="-8" class="nodelabel">+3V3</text>
    <path d="M0,0 H20 L10,16 Z M10,16 V30" class="cell_PF_U2_16"/>
    <g s:x="10" s:y="30" s:pid="P" s:position="bottom"/>
  </g>
  <g s:type="PWR_GND" s:width="22" s:height="30" transform="translate(329.5,844.5)" id="cell_PF_U2_8">
    <s:alias val="PWR_GND"/>
    <path d="M0,0 H20 M4,5 H16 M8,10 H12 M10,0 V-14" class="cell_PF_U2_8"/>
    <g s:x="10" s:y="-14" s:pid="P" s:position="top"/>
  </g>
  <g s:type="PWR_3V3" s:width="40" s:height="38" transform="translate(320.5,678.5)" id="cell_PF_U3_16">
    <s:alias val="PWR_3V3"/>
    <text x="10" y="-8" class="nodelabel">+3V3</text>
    <path d="M0,0 H20 L10,16 Z M10,16 V30" class="cell_PF_U3_16"/>
    <g s:x="10" s:y="30" s:pid="P" s:position="bottom"/>
  </g>
  <g s:type="PWR_GND" s:width="22" s:height="30" transform="translate(463.5,834.5)" id="cell_PF_U3_9">
    <s:alias val="PWR_GND"/>
    <path d="M0,0 H20 M4,5 H16 M8,10 H12 M10,0 V-14" class="cell_PF_U3_9"/>
    <g s:x="10" s:y="-14" s:pid="P" s:position="top"/>
  </g>
  <g s:type="PWR_3V3" s:width="40" s:height="38" transform="translate(109.5,840.5)" id="cell_PF_U4_1">
    <s:alias val="PWR_3V3"/>
    <text x="10" y="-8" class="nodelabel">+3V3</text>
    <path d="M0,0 H20 L10,16 Z M10,16 V30" class="cell_PF_U4_1"/>
    <g s:x="10" s:y="30" s:pid="P" s:position="bottom"/>
  </g>
  <g s:type="PWR_GND" s:width="22" s:height="30" transform="translate(329.5,760.5)" id="cell_PF_U4_12">
    <s:alias val="PWR_GND"/>
    <path d="M0,0 H20 M4,5 H16 M8,10 H12 M10,0 V-14" class="cell_PF_U4_12"/>
    <g s:x="10" s:y="-14" s:pid="P" s:position="top"/>
  </g>
  <g s:type="PWR_3V3" s:width="40" s:height="38" transform="translate(109.5,44.5)" id="cell_PF_U5_8">
    <s:alias val="PWR_3V3"/>
    <text x="10" y="-8" class="nodelabel">+3V3</text>
    <path d="M0,0 H20 L10,16 Z M10,16 V30" class="cell_PF_U5_8"/>
    <g s:x="10" s:y="30" s:pid="P" s:position="bottom"/>
  </g>
  <g s:type="PWR_GND" s:width="22" s:height="30" transform="translate(329.5,159)" id="cell_PF_U5_4">
    <s:alias val="PWR_GND"/>
    <path d="M0,0 H20 M4,5 H16 M8,10 H12 M10,0 V-14" class="cell_PF_U5_4"/>
    <g s:x="10" s:y="-14" s:pid="P" s:position="top"/>
  </g>
  <g s:type="PWR_3V3" s:width="40" s:height="38" transform="translate(320.5,209)" id="cell_PF_M1_VDD">
    <s:alias val="PWR_3V3"/>
    <text x="10" y="-8" class="nodelabel">+3V3</text>
    <path d="M0,0 H20 L10,16 Z M10,16 V30" class="cell_PF_M1_VDD"/>
    <g s:x="10" s:y="30" s:pid="P" s:position="bottom"/>
  </g>
  <g s:type="PWR_GND" s:width="22" s:height="30" transform="translate(463.5,291)" id="cell_PF_M1_GND">
    <s:alias val="PWR_GND"/>
    <path d="M0,0 H20 M4,5 H16 M8,10 H12 M10,0 V-14" class="cell_PF_M1_GND"/>
    <g s:x="10" s:y="-14" s:pid="P" s:position="top"/>
  </g>
  <line x1="490" x2="525" y1="361.5" y2="361.5" class="net_3"/>
  <line x1="525" x2="525" y1="361.5" y2="908.5" class="net_3"/>
  <line x1="525" x2="12" y1="908.5" y2="908.5" class="net_3"/>
  <line x1="12" x2="12" y1="908.5" y2="301.5" class="net_3"/>
  <line x1="12" x2="111" y1="301.5" y2="301.5" class="net_3"/>
  <line x1="142" x2="257" y1="441.5" y2="441.5" class="net_8"/>
  <line x1="257" x2="257" y1="441.5" y2="566" class="net_8"/>
  <line x1="257" x2="323.1666666666667" y1="566" y2="566" class="net_8"/>
  <line x1="142" x2="247" y1="421.5" y2="421.5" class="net_9"/>
  <line x1="247" x2="247" y1="421.5" y2="586" class="net_9"/>
  <line x1="247" x2="323.1666666666667" y1="586" y2="586" class="net_9"/>
  <line x1="142" x2="237" y1="381.5" y2="381.5" class="net_10"/>
  <line x1="237" x2="237" y1="381.5" y2="606" class="net_10"/>
  <line x1="237" x2="323.1666666666667" y1="606" y2="606" class="net_10"/>
  <line x1="119.5" x2="119.5" y1="504" y2="626" class="net_15"/>
  <line x1="119.5" x2="323.1666666666667" y1="626" y2="626" class="net_15"/>
  <line x1="287" x2="287" y1="820.5" y2="646" class="net_16"/>
  <line x1="287" x2="323.1666666666667" y1="646" y2="646" class="net_16"/>
  <line x1="287" x2="339.5" y1="820.5" y2="830.5" class="net_16"/>
  <line x1="142" x2="267" y1="321.5" y2="321.5" class="net_4"/>
  <line x1="267" x2="267" y1="321.5" y2="361.5" class="net_4"/>
  <circle cx="267" cy="321.5" r="2" style="fill:#000" class="net_4"/>
  <circle cx="267" cy="361.5" r="2" style="fill:#000" class="net_4"/>
  <line x1="267" x2="459" y1="361.5" y2="361.5" class="net_4"/>
  <line x1="142" x2="267" y1="321.5" y2="321.5" class="net_4"/>
  <line x1="267" x2="267" y1="321.5" y2="453" class="net_4"/>
  <line x1="267" x2="322" y1="453" y2="453" class="net_4"/>
  <line x1="142" x2="267" y1="321.5" y2="321.5" class="net_4"/>
  <line x1="267" x2="267" y1="321.5" y2="52.5" class="net_4"/>
  <line x1="267" x2="323.1666666666667" y1="52.5" y2="52.5" class="net_4"/>
  <line x1="142" x2="277" y1="301.5" y2="301.5" class="net_2"/>
  <line x1="277" x2="277" y1="301.5" y2="381.5" class="net_2"/>
  <circle cx="277" cy="301.5" r="2" style="fill:#000" class="net_2"/>
  <circle cx="277" cy="381.5" r="2" style="fill:#000" class="net_2"/>
  <line x1="277" x2="459" y1="381.5" y2="381.5" class="net_2"/>
  <line x1="142" x2="277" y1="301.5" y2="301.5" class="net_2"/>
  <line x1="277" x2="277" y1="301.5" y2="473" class="net_2"/>
  <line x1="277" x2="322" y1="473" y2="473" class="net_2"/>
  <line x1="142" x2="277" y1="301.5" y2="301.5" class="net_2"/>
  <line x1="277" x2="277" y1="301.5" y2="72.5" class="net_2"/>
  <line x1="277" x2="323.1666666666667" y1="72.5" y2="72.5" class="net_2"/>
  <line x1="142" x2="459" y1="401.5" y2="401.5" class="net_5"/>
  <line x1="353" x2="394" y1="433" y2="433" class="net_12"/>
  <line x1="394" x2="394" y1="433" y2="421.5" class="net_12"/>
  <line x1="394" x2="459" y1="421.5" y2="421.5" class="net_12"/>
  <line x1="354.1666666666667" x2="394" y1="566" y2="566" class="net_14"/>
  <line x1="394" x2="394" y1="566" y2="441.5" class="net_14"/>
  <line x1="394" x2="459" y1="441.5" y2="441.5" class="net_14"/>
  <line x1="353" x2="404" y1="453" y2="453" class="net_13"/>
  <line x1="404" x2="404" y1="453" y2="461.5" class="net_13"/>
  <line x1="404" x2="459" y1="461.5" y2="461.5" class="net_13"/>
  <line x1="330.5" x2="330.5" y1="708.5" y2="726.5" class="net_17"/>
  <line x1="330.5" x2="404" y1="726.5" y2="726.5" class="net_17"/>
  <line x1="404" x2="404" y1="726.5" y2="481.5" class="net_17"/>
  <line x1="404" x2="459" y1="481.5" y2="481.5" class="net_17"/>
  <line x1="414" x2="414" y1="810.5" y2="501.5" class="net_18"/>
  <line x1="414" x2="459" y1="501.5" y2="501.5" class="net_18"/>
  <line x1="414" x2="473.5" y1="810.5" y2="820.5" class="net_18"/>
  <line x1="142" x2="257" y1="341.5" y2="341.5" class="net_6"/>
  <line x1="257" x2="257" y1="341.5" y2="433" class="net_6"/>
  <line x1="257" x2="322" y1="433" y2="433" class="net_6"/>
  <line x1="119.5" x2="119.5" y1="870.5" y2="888.5" class="net_19"/>
  <line x1="119.5" x2="267" y1="888.5" y2="888.5" class="net_19"/>
  <line x1="267" x2="267" y1="888.5" y2="493" class="net_19"/>
  <line x1="267" x2="322" y1="493" y2="493" class="net_19"/>
  <line x1="277" x2="277" y1="898.5" y2="513" class="net_20"/>
  <line x1="277" x2="322" y1="513" y2="513" class="net_20"/>
  <line x1="277" x2="277" y1="898.5" y2="736.5" class="net_20"/>
  <line x1="277" x2="339.5" y1="736.5" y2="736.5" class="net_20"/>
  <circle cx="277" cy="736.5" r="2" style="fill:#000" class="net_20"/>
  <line x1="339.5" x2="339.5" y1="736.5" y2="746.5" class="net_20"/>
  <line x1="142" x2="237" y1="361.5" y2="361.5" class="net_7"/>
  <line x1="237" x2="237" y1="361.5" y2="32.5" class="net_7"/>
  <line x1="237" x2="323.1666666666667" y1="32.5" y2="32.5" class="net_7"/>
  <line x1="119.5" x2="119.5" y1="74.5" y2="92.5" class="net_21"/>
  <line x1="119.5" x2="323.1666666666667" y1="92.5" y2="92.5" class="net_21"/>
  <line x1="287" x2="287" y1="135" y2="112.5" class="net_22"/>
  <line x1="287" x2="323.1666666666667" y1="112.5" y2="112.5" class="net_22"/>
  <line x1="287" x2="339.5" y1="135" y2="145" class="net_22"/>
  <line x1="354.1666666666667" x2="459" y1="32.5" y2="32.5" class="net_11"/>
  <line x1="330.5" x2="330.5" y1="239" y2="257" class="net_23"/>
  <line x1="330.5" x2="394" y1="257" y2="257" class="net_23"/>
  <line x1="394" x2="394" y1="257" y2="52.5" class="net_23"/>
  <line x1="394" x2="459" y1="52.5" y2="52.5" class="net_23"/>
  <line x1="404" x2="404" y1="267" y2="72.5" class="net_24"/>
  <line x1="404" x2="459" y1="72.5" y2="72.5" class="net_24"/>
  <line x1="404" x2="473.5" y1="267" y2="277" class="net_24"/>
</svg>
